<?xml version="1.0" encoding="utf-8"?>
<!DOCTYPE svg PUBLIC "-//W3C//DTD SVG 1.1//EN" "http://www.w3.org/Graphics/SVG/1.1/DTD/svg11.dtd">
<svg version="1.1" id="Layer_1" xmlns="http://www.w3.org/2000/svg" xmlns:xlink="http://www.w3.org/1999/xlink" x="0px" y="0px"
	 viewBox="0 0 1555 2385" enable-background="new 0 0 1555 2385" xml:space="preserve">
<g>
	<path d="M1137.5409,917.7886c2.6642,0.1393,3.9608,1.032,3.5686,4.1882c-0.8621,6.9379-1.2079,13.9382-1.9039,20.8992
		c-0.2474,2.4744,0.0682,3.6419,3.0012,4.3989c22.9764,5.9305,42.9377,17.1453,60.7863,32.9955
		c39.5593,35.1302,71.0524,76.3343,93.6781,123.9733c28.7633,60.5619,57.9016,120.9858,83.9932,182.7596
		c12.016,28.4491,26.4238,55.5845,40.735,82.8232c8.127,15.468,16.3425,30.9078,25.8542,45.6045
		c2.1041,3.2511,2.6891,7.1327,3.9828,10.7207c9.9822,27.6864,21.8416,54.6388,32.1379,82.2037
		c3.5493,9.5021,7.5728,18.8202,10.7234,28.4823c0.9562,2.9323,0.421,5.1429-1.2727,7.3845
		c-2.8317,3.7482-6.3364,6.8292-9.7997,9.9611c-19.0138,17.1926-41.3,27.6936-66.312,32.8209
		c-16.3199,3.3456-32.9901,4.418-49.2808,7.9559c-10.568,2.2954-21.1876,4.3373-31.6707,7.0278
		c-7.4945,1.9236-14.4445,4.9092-20.8816,9.2465c-2.1759,1.4662-3.5045,2.9078-3.0651,5.5995
		c0.5126,3.1394-1.0789,3.9165-3.9785,4.0519c-36.1152,1.6855-72.1741,4.7986-108.3661,4.5013
		c-11.3116-0.0929-22.1727,1.7458-32.8135,5.4771c-15.6617,5.4917-31.7864,7.3285-48.2242,4.9414
		c-3.468-0.5037-4.3207,0.6421-5.0576,3.4712c-3.7048,14.2209-5.5336,28.7488-7.4003,43.2816
		c-1.7819,13.8713-3.359,27.8644-9.7797,40.5626c-3.4735,6.8699-6.4885,13.8678-8.6021,21.235
		c-9.359,32.6221-18.7968,65.2354-25.8053,98.4608c-1.95,9.2443-3.0808,18.7174-3.3021,28.2491
		c-1.3501,58.1438-4.1514,116.2488-4.6727,174.4171c-0.0386,4.2936,0.9462,6.5709,5.2816,7.934
		c6.6761,2.0989,12.736,5.4177,17.8529,10.5295c5.9402,5.9341,13.4637,9.7493,20.7896,13.6975
		c3.3219,1.7903,5.983,4.0649,8.1169,7.158c2.8361,4.1113,6.0774,7.9504,8.7948,12.1338
		c4.8369,7.4465,3.0457,12.9246-5.3043,16.0618c-10.6071,3.9849-21.3568,7.4722-32.8224,8.1301
		c-5.5903,0.3208-5.6949,0.4895-5.5681,6.1506c0.2908,12.98-0.8713,25.9932,0.9478,38.9397
		c0.7905,5.6255,1.9138,11.1919,4.0063,16.4529c2.6046,6.5488,2.4463,12.9827,0.2565,19.5181
		c-0.3167,0.9448-0.4708,1.9907-0.9802,2.8174c-7.8467,12.7361-6.7174,26.7004-5.7264,40.6833
		c0.6721,9.4834,0.8525,18.9719-0.3655,28.4478c-0.5375,4.1819-1.5793,8.1384-3.7108,11.8103
		c-3.9619,6.8254-7.2526,14.0266-7.78,21.9448c-0.8527,12.8044-17.7328,23.354-30.9565,18.5906
		c-6.5842-2.3713-13.1765-4.7878-19.3773-7.9563c-12.1509-6.2085-24.0867-12.8337-35.8708-19.74
		c-11.5947-6.7954-14.1968-17.731-14.7205-29.8315c-0.0612-1.4126,0.713-2.5205,1.3871-3.6753
		c9.4958-16.2607,17.6337-33.2153,25.5736-50.2666c2.4565-5.2756,4.6531-10.6414,6.0354-16.355
		c1.5684-6.4822,3.9218-12.7766,7.205-18.572c8.1107-14.3171,10.9323-29.376,8.1722-45.6897
		c-2.1086-12.4636-3.1114-25.1316-7.3363-37.1609c-4.5155-12.8567-9.8185-25.4768-13.6199-38.5369
		c-12.0427-41.3734-23.829-82.8096-30.3069-125.5684c-4.2128-27.8079-9.6411-55.4294-14.1932-83.1887
		c-4.8768-29.7399-8.8936-59.6086-12.7073-89.505c-2.236-17.5282-3.7797-35.0883-4.6133-52.7471
		c-0.6451-13.666-4.4279-26.9052-7.1113-40.2802c-0.2242-1.1174-0.7967-2.1835-1.3129-3.2209
		c-4.6705-9.387-9.4174-18.7362-14.0134-28.1593c-1.1226-2.3013-2.5683-3.5776-5.1821-3.9923
		c-6.902-1.0952-13.7679-2.4236-20.6352-3.7283c-1.8635-0.3541-3.571-0.1415-5.3839,0.4
		c-7.3315,2.1897-14.6691,4.3763-22.0712,6.3086c-11.6741,3.0471-23.3474,2.9728-35.0623-0.1432
		c-28.1353-7.4836-56.359-14.6394-84.4477-22.2921c-13.1456-3.5817-25.7427-9.0106-39.1155-11.9508
		c-8.6173-1.8947-17.2758-3.5454-25.9227-5.2753c-3.553-0.7108-4.1515,0.4336-4.1343,3.6564
		c0.1125,21.1589,0.058,42.3187,0.058,63.7272c2.0002-1.1522,0.0272-3.2439,1.8232-4.4039
		c0.6105,4.8209,0.0978,9.4475-0.1016,14.3643c-2.0377-1.215-0.5463-3.4504-2.0895-4.5901
		c-1.2494,3.2317-2.3189,6.5067-3.7534,9.6134c-4.4559,9.65-11.7153,14.9052-22.7196,14.8727
		c-13.8301-0.0409-27.6603,0.3799-41.3807,2.4141c-7.9162,1.1736-15.7201,2.7526-23.1293,5.9535
		c-7.2911,3.1498-11.2761,8.2378-12.7518,16.391c-7.6185,42.0903-16.9401,83.8354-26.3862,125.549
		c-2.94,12.9832-6.0841,25.923-8.8278,38.9473c-3.1069,14.7488-9.2208,28.46-14.21,42.5566
		c-12.5433,35.4401-27.0961,70.1477-38.8192,105.8846c-8.6701,26.4299-16.1279,53.1824-20.0844,80.7986
		c-1.3984,9.7612-1.8185,19.5642-1.7214,29.4087c0.0173,1.7502,0.4325,3.1606,1.6424,4.5095
		c13.4671,15.0127,27.0674,29.906,41.5934,43.9038c12.0717,11.6328,26.1948,19.8755,42.3849,24.4949
		c5.9241,1.6902,11.7811,3.5833,16.9009,7.2229c4.9192,3.4971,8.4065,7.9907,10.1324,13.8137
		c2.3928,8.0735,0.7715,11.8669-6.9335,15.5439c-11.2632,5.3745-22.8928,10.0784-33.7642,16.1467
		c-8.5883,4.7937-16.7492,4.719-25.7775,2.3618c-15.2289-3.9763-29.6778-9.7947-43.6339-16.9556
		c-12.5825-6.4561-24.9305-13.3745-38.0206-18.8181c-5.7755-2.4019-11.6403-3.7502-17.9448-3.6528
		c-10.5164,0.1631-20.9771-0.6633-31.2641-3.0186c-2.1003-0.4805-4.1421-1.2151-6.214-1.822
		c-4.5559-1.3352-6.8587-3.7505-7.2357-9.103c-0.9938-14.1113-2.8266-28.1665-4.4492-42.2295
		c-0.3637-3.1521,0.2431-5.5513,2.3222-8.1846c8.714-11.0374,13.4058-24.0747,17.374-37.3481
		c7.1276-23.8411,11.122-48.3169,14.0884-72.9641c8.5381-70.9419,10.083-142.2253,10.1875-213.5721
		c0.0059-4.0354,0.52-7.8873,1.676-11.778c11.1811-37.635,22.2582-75.3008,33.3438-112.9641
		c1.7849-6.0643,4.5003-11.8126,5.9469-17.9941c2.7722-11.8451-1.4991-21.1791-12.414-26.3676
		c-2.3553-1.1198-3.5694-2.2413-3.6195-5.1029c-0.3044-17.3673-3.4558-34.4449-5.5515-51.631
		c-1.3309-10.915-2.6138-21.8286-2.5727-32.8582c0.1055-28.3413-0.6985-56.655-3.0999-84.903
		c-0.8604-10.1215-2.2024-20.1952-4.0526-30.191c-0.2084-1.1262-0.3806-2.3077-1.5502-3.5078
		c-2.6841,12.1987-5.4004,24.1331-7.9261,36.1077c-5.4263,25.7268-11.233,51.377-15.7708,77.2847
		c-1.5313,8.7428-0.9922,17.6161-1.5363,26.4224c-1.6231,26.2723-6.2604,51.8589-16.9092,76.1248
		c-4.9748,11.3359-11.0999,21.9852-18.7368,31.7402c-1.5674,2.0022-2.7091,3.923-2.5891,6.7281
		c1.5946,37.2566-4.0448,73.7135-12.2598,109.892c-5.0879,22.4067-9.5428,44.9294-12.2006,67.7871
		c-1.4731,12.6688,0.0144,24.8975,4.1242,36.8953c3.45,10.0715,6.8256,20.1686,10.2666,30.2433
		c6.7494,19.7612,8.556,39.8324,5.0045,60.536c-2.4471,14.2661-3.8253,28.7162-5.66,43.0868
		c-0.5741,4.4963-0.404,8.9504,0.599,13.4031c2.378,10.5574,1.8958,20.8936-0.8099,31.5049
		c-5.8764,23.0461-11.6149,46.1558-14.9854,69.7561c-0.2348,1.6443-0.8365,3.2429-1.0026,4.8894
		c-1.4858,14.7327-11.9177,20.0923-24.392,23.0339c-9.2445,2.1802-18.3825,0.6194-26.8952-3.0488
		c-22.2063-9.5691-38.3315-25.5542-48-47.762c-5.7992-13.3203-5.3727-27.2517-3.052-41.2534
		c3.5669-21.521,11.3038-41.6853,19.9321-61.5706c4.7679-10.9889,8.9649-22.2489,14.208-33.002
		c6.2062-12.7281,6.4423-25.8241,4.9476-39.4529c-4.266-38.8976-14.373-76.4829-24.9697-113.9788
		c-8.2448-29.1737-15.2849-58.6132-19.2605-88.7173c-4.572-34.621-1.0295-68.4471,10.0434-101.5045
		c1.2541-3.7443,1.6064-7.1996,0.7996-11.1648c-7.2731-35.7449-13.1498-71.726-16.9923-108.0074
		c-3.0729-29.0148-4.7655-58.1135-4.3872-87.3174c0.2158-16.6639,0.1261-33.3319,0.1546-49.998
		c0.0088-5.1481-0.0197-5.1344-5.1755-4.8817c-22.8933,1.1221-45.1809-1.7382-66.6608-10.0492
		c-2.0727-0.8021-3.8339-1.8309-5.3846-3.443c-18.4774-19.2091-31.0009-41.4562-35.3892-68.0319
		c-2.7429-16.6113-0.7649-32.8372,2.9405-49.0319c1.335-5.8346,2.3406-11.7537,3.2652-17.6703
		c0.9332-5.9717,0.5013-11.8365-0.9931-17.7915c-5.9925-23.8796-12.5901-47.6195-16.7545-71.933
		c-4.841-28.2643-7.8953-56.7238-10.0509-85.3054c-3.3105-43.8955-4.1952-87.8658-4.9024-131.8605
		c-0.4582-28.5066,3.1497-56.4851,8.6055-84.3259c5.7285-29.2323,12.6045-58.2477,16.8555-87.7587
		c3.6556-25.3778,7.2405-50.7678,10.5678-76.1903c3.7169-28.3988,7.2054-56.8286,10.6114-85.2666
		c2.9509-24.6377,5.6999-49.3001,8.3963-73.9672c0.3759-3.4393,1.3382-6.3486,3.4419-9.1312
		c16.8382-22.2722,37.4604-40.6126,59.4975-57.4834c18.1404-13.8876,37.3-26.266,56.7409-38.2374
		c28.8148-17.7437,57.0238-36.3686,82.8757-58.3255c8.3889-7.125,16.424-14.6227,23.7498-22.8687
		c1.765-1.9867,2.4634-4.0487,2.7571-6.6659c1.2991-11.5797,3.002-23.1009,2.4951-34.8304
		c-0.196-4.5356-0.6895-8.8918-2.0438-13.2406c-7.3209-23.509-16.1422-46.5278-22.9811-70.1901
		c-6.9636-24.0938-11.923-48.5182-11.093-73.7825c0.5759-17.5318,2.3054-34.8932,8.5078-51.507
		c6.6556-17.8276,17.5501-31.6613,36.143-38.1369c2.08-0.7244,2.9348-1.8519,3.0459-3.9411
		c0.0701-1.3178,0.7311-2.6281,0.6802-3.9243c-0.3005-7.6591,3.6261-11.244,10.7666-13.46
		c13.0273-4.0431,25.8935-8.4781,39.336-11.13c18.589-3.6671,36.5697-1.6366,53.8631,5.5268
		c26.2511,10.8739,48.962,26.9055,67.4655,48.6072c14.4494,16.9467,18.6849,36.4782,15.4811,58.3567
		c-2.9686,20.2719-7.196,40.3129-10.1816,60.5682c-0.9468,6.4231-2.2974,12.8965-2.2439,19.3367
		c0.1623,19.5533-5.1133,37.8017-11.978,55.7987c-4.5717,11.9855-8.5828,24.177-10.1809,36.9743
		c-2.4816,19.8723,5.1073,36.5319,17.0618,51.6539c13.8019,17.459,31.0574,31.0433,49.3499,43.3987
		c17.662,11.9297,36.3118,22.3474,53.5162,34.9874c13.181,9.684,25.7068,20.0865,37.3024,31.6659
		c16.7919,16.7686,26.0374,36.9659,29.6755,60.2692c4.1172,26.3718,6.489,52.8759,8.1,79.4905
		c1.6915,27.945,1.3934,55.9819,3.9205,83.8813c2.9388,32.4437,8.0381,64.4227,21.1476,94.5998
		c3.6471,8.3956,8.5573,16.1681,11.9755,24.6919c9.0087,22.4645,12.141,45.8843,12.1046,69.9239
		c-0.0475,31.3357-0.7895,62.6584-1.3513,93.9851c-0.0296,1.653-0.0038,3.307-0.0038,5.8623
		c1.4922-2.1182,1.6768-3.8038,2.0836-5.3826c4.7315-18.3647,9.157-36.8196,15.0684-54.8522
		c4.85-14.7948,11.6934-28.7053,20.7456-41.3601c4.9841-6.9678,6.2875-14.9649,8.0437-22.8459
		c3.6708-16.4724,5.267-33.205,5.2083-50.0921c-0.0417-11.9997-0.0633-24.0001,0.0482-35.9989
		c0.0228-2.4545-0.5538-3.9879-2.9823-4.9825c-6.3245-2.5902-8.4913-8.5615-11.0293-14.1744
		c-0.355-0.7852-0.3145-1.6238,0.0634-2.4183c4.7875-10.0657,4.9943-20.9872,5.627-31.7565
		c0.6258-10.6503,1.0861-21.2964,3.0403-31.8082c0.449-2.4149-0.0258-4.5519-1.1522-6.7104
		c-2.3089-4.4247-4.5549-8.8878-6.6552-13.4146c-3.6433-7.8521-4.0698-15.8216-1.8221-24.3085
		c3.708-14.0011,7.67-27.9046,12.5124-41.5532c2.6257-7.4006,5.6462-14.5997,10.8814-20.6353
		c0.2468-0.2845,0.1444-0.8718,0.2046-1.3181l0.2217,0.1829l-0.1417-0.0384c-18.2027,2.9676-32.3977-5.9553-39.8269-25.0436
		c-2.1339-5.4825-3.4837-11.1259-2.8796-17.0468c0.4402-4.3146,1.5742-5.0956,5.7567-4.0795
		c5.1876,1.2603,9.1039-0.4453,12.0935-4.7241c2.8079-4.0189,4.2948-8.6077,5.6719-13.2219
		c1.8501-6.199,5.0405-12.4838,4.8815-18.6603c-0.1595-6.1971-4.7866-11.8429-7.3435-17.7792
		c-1.1799-2.7392-2.3032-5.5028-3.4522-8.2553l-0.1392,0.0059c4.6191-0.3326,8.6232,2.0958,12.9905,2.8909
		c1.4497,0.2639,2.7536,1.1064,4.3659,0.7611c3.3464-0.7167,4.1786-1.9758,3.0609-5.2768c-1.0754-3.1763-2.8071-6.044-4.6788-8.7927
		c-7.1489-10.4981-6.8583-21.222-0.9741-32.0523c4.7982-8.8312,11.4739-16.3461,17.6057-24.2184
		c2.4929-3.2005,3.7955-5.8024,1.2826-9.6596c-1.7853-2.7405-0.7131-5.6507,1.0839-8.381
		c4.8025-7.2966,10.949-13.3904,16.9437-19.6432c2.3704-2.4724,5.2123-4.6718,6.1884-8.2953
		c-8.3444-0.0567-10.3071-1.8807-12.7984-12.0721c5.2613,0.5764,8.6437-2.5709,11.6871-6.0732
		c3.9312-4.5239,7.5515-9.3181,11.4877-13.8373c2.0432-2.3458,1.3436-4.6689,0.4995-7.0037
		c-1.2535-3.4672-0.893-6.3347,2.0112-8.9148c7.6187-6.7684,10.8403-15.5392,11.7875-25.5147
		c0.469-4.9396,1.8161-9.8127,2.9721-14.6667c2.0263-8.5089,5.0818-16.3741,11.7128-22.695
		c6.6808-6.3686,11.1094-14.3309,14.8052-22.8748c6.8647-15.8691,13.0446-32.0778,21.4402-47.2436
		c10.5576-19.071,25.7828-32.2593,47.3682-37.7389c14.0576-3.5686,28.043-7.2433,42.6262-7.7924
		c13.4888-0.5079,24.7161,4.349,33.7379,14.3499c3.0129,3.3399,5.9614,6.7379,8.9745,10.0776
		c4.1454,4.5946,8.7139,8.5806,14.1575,11.7227c8.2731,4.7755,14.2162,12.0108,18.9135,20.2116
		c8.4865,14.8165,14.993,30.4237,18.3185,47.2574c0.3494,1.7686,0.6371,3.5472,1.9645,5.0309
		c5.105,5.7057,10.115,11.4963,15.3086,17.4245c2.9598-2.1378,4.1903-5.6179,7.5828-8.4701c0,5.6137,0.12,10.3585-0.0477,15.093
		c-0.0913,2.5775,0.7212,3.5665,3.3749,3.452c7.5057-0.3239,12.7008,3.232,17.0923,9.2778
		c12.5854,17.3266,18.8739,36.8091,21.5703,57.8126c2.4127,18.7939,2.2937,37.5365,0.3513,56.3296
		c-0.2203,2.1336-0.2302,4.3551,0.1018,6.4668c0.8823,5.6118,5.1526,7.9696,10.5513,6.0273
		c0.7766-0.2794,1.5278-0.6848,2.7035-0.2304c0.6528,5.4088-0.0481,10.7558-2.3933,15.8321
		c-1.6903,3.6591-4.5911,5.5674-8.7565,5.3978c-2.4946-0.1016-5.0028-0.1522-7.4926-0.0094
		c-2.009,0.1152-4.2169,0.4978-4.9572,2.6874c-0.7902,2.3373-0.1387,4.613,1.5433,6.4962c1.2657,1.4172,2.8899,2.3292,4.7198,2.6323
		c9.8151,1.6256,16.7842,7.8069,23.1597,14.713c3.4883,3.7787,6.2451,8.2217,9.5537,12.1797
		c5.0139,5.998,5.9469,12.8697,4.6328,20.2161c-0.9661,5.4016-2.2313,10.7502-3.3835,16.118
		c-1.8446,8.5937-6.8562,14.2236-15.4451,16.5477c-1.5522,0.42-3.1868,0.7321-4.8462,2.0532
		c6.7451,0.6366,13.1453,1.2371,19.3739,2.789c14.8716,3.7051,26.3688,12.3952,35.3788,24.5391
		c10.725,14.4554,17.3748,30.7369,19.9673,48.4553c2.438,16.6604,6.1268,33.049,9.7548,49.4449
		c1.6298,7.3657,1.9875,14.2185-0.5829,21.4115c-2.381,6.6633-2.035,6.7858,3.5897,11.2568
		c1.304,1.0365,2.6177,2.0617,3.8975,3.1274c3.3473,2.7874,3.6649,6.7122,0.7583,9.8729c-0.7844,0.8531-1.6344,1.7382-2.631,2.2886
		c-5.4471,3.0089-6.5873,8.0511-6.4875,13.6242c0.201,11.2388,3.0717,22.0589,5.3802,32.9581
		c3.4528,16.3005,5.8003,32.7513,7.6953,49.3077c2.2827,19.9442,8.3633,38.6669,20.2692,55.1602
		c0.2924,0.405,0.6296,0.7851,0.8706,1.2186c18.3445,33.0035,37.9415,65.4524,50.83,101.1009
		c5.8075,16.0629,12.8966,31.3157,20.891,46.2921c1.749,3.2766,3.7605,4.5735,7.4052,4.2401
		c3.4703-0.3174,7.0027,0.1025,10.4899-0.1037c7.2632-0.4295,14.2711,0.2411,20.7997,3.7856
		c2.1228,1.1526,4.514,1.3633,6.8237,1.0344c4.1697-0.5936,6.9163,1.0281,8.9933,4.5927c2.2053,3.7849,5.4622,6.6466,8.9479,9.2928
		c4.3772,3.3231,8.4104,7.1281,12.9401,10.2142c4.7311,3.2233,7.7511,7.163,7.736,13.0005
		c-0.0115,4.4889,3.389,5.8417,6.5968,7.0377c3.4857,1.2996,3.9464,2.9631,2.5289,6.3368
		c-3.2184,7.6595-5.5706,15.6761-9.2537,23.1542c-2.071,4.205-4.4867,8.2207-8.2609,11.1443
		c-2.8383,2.1986-5.8346,4.2306-9.4355,1.2579c-1.0714,2.2638-0.6117,4.2881-0.677,6.2438
		c-0.6119,18.3174-0.3959,36.6605-1.6698,54.9569c-0.452,6.4924-1.5878,12.837-3.7891,19.0195
		c-4.8165,13.5273-18.8383,14.6366-27.7306,8.0974c-5.7209-4.2072-10.2306-9.5825-13.6876-15.7252
		c-8.3936-14.9144-14.2422-30.6658-16.5048-47.8007c-1.3651-10.3402-1.7991-20.5491-0.308-30.8369
		c0.4667-3.22-0.405-5.5697-2.8254-7.9106c-8.7377-8.4508-17.0784-17.296-26.8136-24.6904
		c-4.6548-3.5355-7.9296-8.5206-11.75-12.9138c-31.2837-35.975-60.8076-73.3539-88.9463-111.8309
		c-6.1016-8.3433-11.5774-17.0667-16.1019-26.3976c-4.1422-8.5427-8.8223-16.7974-14.4636-24.4757
		c-4.7786-6.5043-5.337-14.218-5.9836-21.8578c-0.3088-3.6483-0.5646-7.3419-0.3474-10.9854
		c0.4705-7.8928-1.6649-15.0985-4.8706-22.1705c-3.9532-8.7205-7.6803-17.5435-11.505-26.3223
		c-0.3398,0.0547-0.6798,0.1094-1.0198,0.1641c-0.4576,6.0153-0.944,12.0285-1.3669,18.0462
		c-0.9579,13.626-1.8982,27.2385-6.6124,40.2618c-4.7064,13.0019-11.2804,24.7969-21.2136,34.6019
		c-3.0645,3.0248-6.3158,5.9446-8.4891,9.7689c0.2319,0.4436,0.3313,0.4599,0.2395,0.0624
		C1137.9041,917.8207,1137.6716,917.8165,1137.5409,917.7886z M190.3316,745.7616c-1.9272,11.1129-3.8826,22.2209-5.7766,33.3394
		c-6.5385,38.3831-13.1061,76.7614-19.5665,115.1576c-6.2127,36.9241-12.1551,73.8928-17.4928,110.9548
		c-2.5626,17.7932-5.9171,35.5673-6.3849,53.5299c-1.2246,47.0131,0.5001,93.9263,8.0247,140.4567
		c2.6066,16.1183,6.6213,31.88,12.9207,47.047c2.8882,6.9539,8.2721,10.7897,14.4194,14.548
		c0.2296-0.8632,0.4159-1.3051,0.4584-1.7604c3.0794-33.0157,5.2489-66.0796,5.2162-99.2594
		c-0.0018-1.8217,0.0179-3.621,0.5861-5.427c7.7986-24.7848,13.0817-50.194,18.8908-75.4828
		c4.6585-20.2799,9.2139-40.5713,12.1473-61.171c5.2445-36.8291,7.5023-73.8708,7.3589-111.0721
		c-0.138-35.7959-4.4566-71.0491-13.0129-105.8102c-2.7361-11.1155-6.3074-22.0028-7.5878-33.5214
		C199.6528,759.3745,196.0212,752.1122,190.3316,745.7616z M643.1645,1367.9568c0.405,0.0354,0.8101,0.0708,1.2151,0.1061
		c3.3423-9.6898,6.6594-19.3885,10.0575-29.0588c0.4432-1.2612,0.0828-2.2858-0.3256-3.36
		c-5.2458-13.8011-5.2004-28.014-3.3479-42.3761c1.045-8.1008,1.4732-16.1488,0.6931-24.3804
		c-1.2341-13.0226,1.2026-25.6354,7.6741-37.1022c2.7032-4.7897,4.12-9.7314,4.8735-15.0297
		c0.4451-3.1296,1.0521-6.2361,1.5131-9.3636c2.4075-16.3346,4.363-32.7039,3.1157-49.2659
		c-1.8789-24.95-6.3582-49.5046-11.192-74.014c-6.8265-34.6135-16.02-68.6974-22.9766-103.2789
		c-9.1451-45.4614-15.8684-91.1863-15.5922-137.7335c0.1088-18.3331-1.0513-36.6345-3.9473-54.7667
		c-2.1316-13.3461-5.0294-26.5092-11.8734-38.4056c-1.7027-2.9598-3.3069-6.0917-6.6066-8.082
		c-5.4108,8.9148-7.588,18.6614-9.3884,28.4727c-4.2499,23.1609-5.2477,46.6152-6.3844,70.0844
		c-2.9164,60.2151,2.1123,119.8664,12.8976,179.0248c6.9518,38.1317,15.2731,76.0134,22.9542,114.0126
		c2.6337,13.0293,5.5022,25.9462,5.9675,39.3987c0.6213,17.9624,2.2319,35.9088,3.9517,53.8108
		c2.2451,23.368,4.8334,46.7074,7.606,70.0195C636.8785,1320.4565,640.1094,1344.1963,643.1645,1367.9568z M871.7145,833.7664
		c-0.1901,0.0214-0.3802,0.0427-0.5703,0.064c-0.315,1.2767-0.7427,2.5372-0.9279,3.8325
		c-2.0959,14.6622-4.0272,29.3491-6.2603,43.9901c-2.0812,13.6453-2.8437,27.5433-6.4724,40.8918
		c-5.6712,20.8625-11.7605,41.6088-16.0443,62.823c-1.1996,5.9404-2.4253,11.8756-3.6391,17.8132
		c0.3792,0.2363,0.7584,0.4726,1.1375,0.7089c1.0454-1.2482,2.0393-2.5441,3.1445-3.7369
		c8.4954-9.1696,16.3383-18.8944,24.4031-28.4337c7.3317-8.6719,11.5364-18.6177,13.2386-29.6859
		c1.3715-8.9175,1.4813-17.889,0.8112-26.907c-0.7913-10.6494-3.293-21.0461-4.4233-31.6179
		C874.3427,866.9604,873.1509,850.3503,871.7145,833.7664z M126.7861,1346.6185c0.4191,8.1656,3.5794,15.233,7.8127,21.906
		c5.757,9.0747,13.2476,16.6136,21.1741,23.7585c9.3331,8.4127,9.3355,8.4105,20.5354,2.818
		c6.6328-3.312,6.8985-5.7002,1.1603-10.7861c-1.6258-1.4409-3.4001-3.1171-5.4835-3.321
		c-9.0207-0.8823-10.0804-7.0002-9.8218-14.1709c0.0298-0.8269-0.0614-1.663-0.1524-2.4886
		c-1.5076-13.6772-5.28-26.6743-11.6437-38.9025c-0.8019-1.5406-1.5602-2.8873-3.6467-2.7692
		c-7.1024,0.4025-11.9007,5.2522-17.3194,8.9011c-0.2118,0.1427-0.2444,0.6062-0.2917,0.9303
		C128.4156,1337.2498,126.7478,1341.8499,126.7861,1346.6185z"/>
	<polygon points="774.7678,495.1268 775.0303,495.0615 774.6286,495.1327 	"/>
</g>
</svg>
